<svg width="30" height="30" viewBox="0 0 30 30" fill="none" xmlns="http://www.w3.org/2000/svg">
<path d="M26.25 3.75V19.375C26.25 20.5353 25.7891 21.6481 24.9686 22.4686C24.1481 23.2891 23.0353 23.75 21.875 23.75C20.7147 23.75 19.6019 23.2891 18.7814 22.4686C17.9609 21.6481 17.5 20.5353 17.5 19.375C17.5 18.2147 17.9609 17.1019 18.7814 16.2814C19.6019 15.4609 20.7147 15 21.875 15C22.55 15 23.1875 15.15 23.75 15.425V8.0875L11.25 10.75V21.875C11.25 23.0353 10.7891 24.1481 9.96859 24.9686C9.14812 25.7891 8.03532 26.25 6.875 26.25C5.71468 26.25 4.60188 25.7891 3.78141 24.9686C2.96094 24.1481 2.5 23.0353 2.5 21.875C2.5 20.7147 2.96094 19.6019 3.78141 18.7814C4.60188 17.9609 5.71468 17.5 6.875 17.5C7.55 17.5 8.1875 17.65 8.75 17.925V7.5L26.25 3.75Z" fill="#00DDFF"/>
</svg>
