<svg width="30" height="30" viewBox="0 0 30 30" fill="none" xmlns="http://www.w3.org/2000/svg">
<path d="M23.75 20L24.8375 5.33123C24.8965 4.64484 24.6836 3.96272 24.2446 3.43179C23.8056 2.90086 23.1756 2.56359 22.4903 2.49262C21.8051 2.42166 21.1193 2.62266 20.5808 3.05236C20.0423 3.48206 19.6941 4.10606 19.6112 4.78998L18.75 11.25M10 13.75L9.10875 8.40123C8.9973 7.74578 8.63664 7.15883 8.10227 6.76325C7.5679 6.36767 6.90122 6.19411 6.24179 6.2789C5.58236 6.36369 4.98128 6.70026 4.56436 7.21816C4.14744 7.73606 3.94701 8.39515 4.005 9.05748L5 20M15 16.25V14.375C15 13.7119 14.7366 13.0761 14.2678 12.6072C13.7989 12.1384 13.163 11.875 12.5 11.875C11.837 11.875 11.2011 12.1384 10.7322 12.6072C10.2634 13.0761 10 13.7119 10 14.375V18.75" stroke="#00DDFF" stroke-width="2" stroke-linecap="round" stroke-linejoin="round"/>
<path d="M20 16.25V13.75C20 13.087 19.7366 12.4511 19.2678 11.9822C18.7989 11.5134 18.163 11.25 17.5 11.25C16.837 11.25 16.2011 11.5134 15.7322 11.9822C15.2634 12.4511 15 13.087 15 13.75V16.25" stroke="#00DDFF" stroke-width="2" stroke-linecap="round" stroke-linejoin="round"/>
<path d="M23.75 20C23.08 25 19.5525 27.5 14.375 27.5C9.1975 27.5 5 25 5 20" stroke="#00DDFF" stroke-width="2"/>
<path d="M17.115 21.25H13.75C13.087 21.25 12.4511 20.9866 11.9822 20.5178C11.5134 20.0489 11.25 19.413 11.25 18.75C11.25 18.087 11.5134 17.4511 11.9822 16.9822C12.4511 16.5134 13.087 16.25 13.75 16.25H18.75C21.5125 16.25 24.375 18.75 23.125 22.5" stroke="#00DDFF" stroke-width="2" stroke-linecap="round" stroke-linejoin="round"/>
</svg>
