<svg width="30" height="30" viewBox="0 0 30 30" fill="none" xmlns="http://www.w3.org/2000/svg">
<path d="M21.25 4.17511C23.1353 5.26368 24.7037 6.82577 25.7998 8.70674C26.8959 10.5877 27.4817 12.7223 27.4993 14.8993C27.5169 17.0762 26.9656 19.2201 25.9 21.1185C24.8345 23.0169 23.2916 24.6041 21.4241 25.723C19.5566 26.8419 17.4292 27.4536 15.2526 27.4977C13.076 27.5417 10.9257 27.0166 9.01444 25.9742C7.1032 24.9318 5.49734 23.4083 4.35583 21.5545C3.21433 19.7007 2.57676 17.581 2.50625 15.4051L2.5 15.0001L2.50625 14.5951C2.57625 12.4363 3.20443 10.3326 4.32955 8.48885C5.45466 6.64514 7.03832 5.12442 8.92612 4.07496C10.8139 3.0255 12.9414 2.48311 15.1013 2.50066C17.2611 2.51821 19.3795 3.09511 21.25 4.17511ZM19 17.8576C18.7633 17.6256 18.4441 17.4971 18.1126 17.5004C17.7812 17.5036 17.4646 17.6384 17.2325 17.8751C16.9415 18.1722 16.5942 18.4082 16.2108 18.5693C15.8275 18.7304 15.4158 18.8134 15 18.8134C14.5842 18.8134 14.1725 18.7304 13.7892 18.5693C13.4058 18.4082 13.0585 18.1722 12.7675 17.8751C12.5343 17.6439 12.2194 17.5138 11.8909 17.5129C11.5625 17.512 11.2469 17.6403 11.0124 17.8703C10.7779 18.1002 10.6433 18.4132 10.6377 18.7416C10.6321 19.0699 10.7559 19.3873 10.9825 19.6251C11.5062 20.1595 12.1313 20.5841 12.8212 20.8739C13.511 21.1638 14.2517 21.3131 15 21.3131C15.7483 21.3131 16.489 21.1638 17.1788 20.8739C17.8687 20.5841 18.4938 20.1595 19.0175 19.6251C19.2495 19.3884 19.378 19.0692 19.3748 18.7377C19.3715 18.4063 19.2367 18.0897 19 17.8576ZM11.2625 11.2501L11.1038 11.2589C10.7874 11.2965 10.4973 11.4535 10.2928 11.6978C10.0883 11.9421 9.98486 12.2553 10.0035 12.5734C10.0222 12.8914 10.1616 13.1903 10.3933 13.409C10.625 13.6278 10.9314 13.7498 11.25 13.7501L11.4087 13.7414C11.7251 13.7037 12.0152 13.5467 12.2197 13.3024C12.4242 13.0581 12.5276 12.7449 12.509 12.4269C12.4903 12.1088 12.3509 11.8099 12.1192 11.5912C11.8875 11.3725 11.5811 11.2505 11.2625 11.2501ZM18.7625 11.2501L18.6038 11.2589C18.2874 11.2965 17.9973 11.4535 17.7928 11.6978C17.5883 11.9421 17.4849 12.2553 17.5035 12.5734C17.5222 12.8914 17.6616 13.1903 17.8933 13.409C18.125 13.6278 18.4314 13.7498 18.75 13.7501L18.9088 13.7414C19.2251 13.7037 19.5152 13.5467 19.7197 13.3024C19.9242 13.0581 20.0276 12.7449 20.009 12.4269C19.9903 12.1088 19.8509 11.8099 19.6192 11.5912C19.3875 11.3725 19.0811 11.2505 18.7625 11.2501Z" fill="#00DDFF"/>
</svg>
