<svg width="30" height="30" viewBox="0 0 30 30" fill="none" xmlns="http://www.w3.org/2000/svg">
<path d="M6.13751 6.18625C3.80463 8.52585 2.49626 11.6961 2.50001 15C2.50001 21.9037 8.09626 27.5 15 27.5C18.3033 27.5037 21.473 26.1959 23.8125 23.8637M25.9725 20.9912C26.9774 19.1544 27.5027 17.0938 27.5 15C27.5 8.09625 21.9038 2.5 15 2.5C12.825 2.5 10.78 3.055 9.00001 4.03125" stroke="#00DDFF" stroke-width="2" stroke-linecap="round" stroke-linejoin="round"/>
<path d="M8.75 18.75V13.125C8.74991 12.8092 8.82957 12.4985 8.98161 12.2217C9.13365 11.9449 9.35313 11.711 9.6197 11.5417C9.88627 11.3724 10.1913 11.2732 10.5064 11.2532C10.8216 11.2332 11.1367 11.2932 11.4225 11.4275M12.3175 12.3162C12.435 12.5612 12.5 12.835 12.5 13.125V18.75M8.75 16.25H12.5M17.5 17.5V18.75H18.75M21.25 16.25V13.75C21.25 13.087 20.9866 12.4511 20.5178 11.9822C20.0489 11.5134 19.413 11.25 18.75 11.25H17.5V12.5M3.75 3.75L26.25 26.25" stroke="#00DDFF" stroke-width="2" stroke-linecap="round" stroke-linejoin="round"/>
</svg>
