<svg width="30" height="30" viewBox="0 0 30 30" fill="none" xmlns="http://www.w3.org/2000/svg">
<path d="M15 20.625C16.5625 20.625 17.8908 20.0783 18.985 18.985C20.0792 17.8917 20.6258 16.5633 20.625 15C20.6242 13.4367 20.0775 12.1087 18.985 11.0162C17.8925 9.92375 16.5642 9.37667 15 9.375C13.4358 9.37333 12.1079 9.92042 11.0163 11.0162C9.92458 12.1121 9.3775 13.44 9.375 15C9.3725 16.56 9.91958 17.8883 11.0163 18.985C12.1129 20.0817 13.4408 20.6283 15 20.625ZM15 16.25C14.6458 16.25 14.3492 16.13 14.11 15.89C13.8708 15.65 13.7508 15.3533 13.75 15C13.7492 14.6467 13.8692 14.35 14.11 14.11C14.3508 13.87 14.6475 13.75 15 13.75C15.3525 13.75 15.6496 13.87 15.8913 14.11C16.1329 14.35 16.2525 14.6467 16.25 15C16.2475 15.3533 16.1275 15.6504 15.89 15.8913C15.6525 16.1321 15.3558 16.2517 15 16.25ZM15 27.5C13.2708 27.5 11.6458 27.1717 10.125 26.515C8.60417 25.8583 7.28125 24.9679 6.15625 23.8438C5.03125 22.7196 4.14084 21.3967 3.485 19.875C2.82917 18.3533 2.50083 16.7283 2.5 15C2.49917 13.2717 2.8275 11.6467 3.485 10.125C4.1425 8.60333 5.03292 7.28042 6.15625 6.15625C7.27958 5.03208 8.6025 4.14167 10.125 3.485C11.6475 2.82833 13.2725 2.5 15 2.5C16.7275 2.5 18.3525 2.82833 19.875 3.485C21.3975 4.14167 22.7204 5.03208 23.8438 6.15625C24.9671 7.28042 25.8579 8.60333 26.5163 10.125C27.1746 11.6467 27.5025 13.2717 27.5 15C27.4975 16.7283 27.1692 18.3533 26.515 19.875C25.8608 21.3967 24.9704 22.7196 23.8438 23.8438C22.7171 24.9679 21.3942 25.8587 19.875 26.5162C18.3558 27.1737 16.7308 27.5017 15 27.5ZM15 25C17.7917 25 20.1562 24.0312 22.0938 22.0938C24.0312 20.1562 25 17.7917 25 15C25 12.2083 24.0312 9.84375 22.0938 7.90625C20.1562 5.96875 17.7917 5 15 5C12.2083 5 9.84375 5.96875 7.90625 7.90625C5.96875 9.84375 5 12.2083 5 15C5 17.7917 5.96875 20.1562 7.90625 22.0938C9.84375 24.0312 12.2083 25 15 25Z" fill="#00DDFF"/>
</svg>
