<svg width="30" height="30" viewBox="0 0 30 30" fill="none" xmlns="http://www.w3.org/2000/svg">
<path fill-rule="evenodd" clip-rule="evenodd" d="M6 3.75H24C24.5525 3.75 25 4.31 25 5C25 5.69 24.5525 6.25 24 6.25H6C5.4475 6.25 5 5.69 5 5C5 4.31 5.4475 3.75 6 3.75ZM8.75 11.25C8.75 10.587 9.01339 9.95107 9.48223 9.48223C9.95107 9.01339 10.587 8.75 11.25 8.75C11.913 8.75 12.5489 9.01339 13.0178 9.48223C13.4866 9.95107 13.75 10.587 13.75 11.25V23.75C13.75 24.413 13.4866 25.0489 13.0178 25.5178C12.5489 25.9866 11.913 26.25 11.25 26.25C10.587 26.25 9.95107 25.9866 9.48223 25.5178C9.01339 25.0489 8.75 24.413 8.75 23.75V11.25ZM16.25 11.25C16.25 10.587 16.5134 9.95107 16.9822 9.48223C17.4511 9.01339 18.087 8.75 18.75 8.75C19.413 8.75 20.0489 9.01339 20.5178 9.48223C20.9866 9.95107 21.25 10.587 21.25 11.25V18.75C21.25 19.413 20.9866 20.0489 20.5178 20.5178C20.0489 20.9866 19.413 21.25 18.75 21.25C18.087 21.25 17.4511 20.9866 16.9822 20.5178C16.5134 20.0489 16.25 19.413 16.25 18.75V11.25Z" fill="#00DDFF"/>
</svg>
