<svg width="30" height="30" viewBox="0 0 30 30" fill="none" xmlns="http://www.w3.org/2000/svg">
<path d="M7.4375 26.25C7.04167 26.25 6.72917 26.0888 6.5 25.7663C6.27083 25.4438 6.20833 25.0946 6.3125 24.7188L11.875 4.625C11.9583 4.35417 12.1042 4.14083 12.3125 3.985C12.5208 3.82917 12.7604 3.75083 13.0312 3.75C13.4479 3.75 13.7708 3.91167 14 4.235C14.2292 4.55833 14.2917 4.90708 14.1875 5.28125L13.5625 7.5H20.5938L21.375 4.625C21.4583 4.35417 21.6096 4.14083 21.8287 3.985C22.0479 3.82917 22.2925 3.75083 22.5625 3.75C22.9583 3.75 23.2708 3.91167 23.5 4.235C23.7292 4.55833 23.7917 4.90708 23.6875 5.28125L18.125 25.375C18.0417 25.6458 17.8958 25.8596 17.6875 26.0163C17.4792 26.1729 17.2396 26.2508 16.9688 26.25C16.5521 26.25 16.2292 26.0888 16 25.7663C15.7708 25.4438 15.7083 25.0946 15.8125 24.7188L16.4375 22.5H9.40625L8.625 25.375C8.54167 25.6458 8.39042 25.8596 8.17125 26.0163C7.95208 26.1729 7.7075 26.2508 7.4375 26.25ZM11.8438 13.75H18.8438L19.875 10H12.875L11.8438 13.75ZM10.125 20H17.125L18.1562 16.25H11.1562L10.125 20Z" fill="#00DDFF"/>
</svg>
