<svg width="30" height="30" viewBox="0 0 30 30" fill="none" xmlns="http://www.w3.org/2000/svg">
<path d="M13.7091 13.7091C13.5396 13.8786 13.4051 14.0797 13.3133 14.3011C13.2216 14.5225 13.1743 14.7598 13.1742 14.9995C13.1742 15.2391 13.2213 15.4764 13.313 15.6979C13.4047 15.9193 13.5391 16.1205 13.7085 16.29C13.8779 16.4598 14.0791 16.5944 14.3006 16.6863C14.5221 16.7782 14.7595 16.8255 14.9993 16.8256C15.2391 16.8256 15.4766 16.7783 15.6981 16.6865C15.9196 16.5946 16.1209 16.46 16.2903 16.2903C16.4601 16.1209 16.5947 15.9197 16.6866 15.6981C16.7785 15.4766 16.8258 15.2391 16.8258 14.9993C16.8258 14.7594 16.7785 14.522 16.6866 14.3004C16.5947 14.0789 16.4601 13.8777 16.2903 13.7082C16.1208 13.5387 15.9196 13.4042 15.6981 13.3124C15.4766 13.2207 15.2392 13.1735 14.9995 13.1736C14.7598 13.1737 14.5224 13.221 14.301 13.3129C14.0796 13.4048 13.8784 13.5394 13.7091 13.7091ZM22.9647 23.7495C27.7563 18.9168 27.7449 11.0874 22.9281 6.27063C22.9212 6.26373 22.9131 6.25953 22.9062 6.25293L22.908 6.25113L22.3992 5.74173L22.3932 5.74773C22.2579 5.63943 22.0879 5.584 21.9148 5.59179C21.7417 5.59957 21.5774 5.67003 21.4524 5.79003L21.4515 5.78913L21.4437 5.79693L21.4413 5.79903L21.4395 5.80143L20.6076 6.63303L20.607 6.63363L20.6064 6.63423L20.5464 6.69423L20.5524 6.70023C20.453 6.82653 20.3993 6.9827 20.3998 7.14341C20.4003 7.30411 20.4552 7.45991 20.5554 7.58553L20.5497 7.59123L20.6067 7.64823V7.64853L21.0588 8.10003L21.0669 8.09193C21.0735 8.09883 21.078 8.10693 21.0849 8.11383C24.885 11.9142 24.897 18.09 21.1215 21.906L21.1164 21.9009L20.6652 22.3521L20.6643 22.3527L20.6637 22.3536L20.6073 22.41L20.613 22.4157C20.5047 22.551 20.4493 22.721 20.4571 22.8941C20.4648 23.0672 20.5353 23.2315 20.6553 23.3565L20.6544 23.3574L20.6637 23.3667L20.6643 23.3676L20.6652 23.3682L21.084 23.787L21.0846 23.7879L21.0855 23.7885L21.4983 24.2013L21.4989 24.2022L21.4998 24.2028L21.5592 24.2622L21.5652 24.2562C21.6916 24.3555 21.8478 24.4093 22.0085 24.4088C22.1692 24.4083 22.325 24.3536 22.4508 24.2535L22.4565 24.2592L22.9266 23.7888L22.9281 23.7876L22.9335 23.7819L22.9656 23.7498L22.9647 23.7495Z" fill="#00DDFF"/>
<path d="M19.4769 20.262C22.3452 17.3523 22.3338 12.6525 19.44 9.75903C19.4331 9.75213 19.425 9.74793 19.4181 9.74103L19.4202 9.73893L18.9111 9.22953L18.9051 9.23553C18.7698 9.12722 18.5998 9.0718 18.4267 9.07958C18.2536 9.08736 18.0893 9.15782 17.9643 9.27783L17.9634 9.27693L17.9547 9.28563L17.9532 9.28683L17.952 9.28833L17.1198 10.1205L17.1186 10.1214L17.1177 10.1226L17.0583 10.182L17.0643 10.188C16.9649 10.3143 16.9111 10.4704 16.9115 10.6311C16.912 10.7918 16.9668 10.9477 17.067 11.0733L17.0613 11.079L17.118 11.1357L17.1186 11.1363L17.1192 11.1369L17.5704 11.5884L17.5785 11.5803C17.5851 11.5872 17.5896 11.5953 17.5965 11.6022C19.4739 13.4793 19.4844 16.5243 17.6322 18.4173L17.6283 18.4134L17.1768 18.8649L17.1762 18.8652L17.1759 18.8658L17.1192 18.9225L17.1249 18.9282C17.0167 19.0635 16.9613 19.2334 16.9691 19.4064C16.9769 19.5795 17.0473 19.7438 17.1672 19.8687L17.166 19.8699L18.0108 20.7144L18.0711 20.7747L18.0771 20.7687C18.2035 20.8679 18.3596 20.9216 18.5202 20.9211C18.6809 20.9207 18.8367 20.866 18.9624 20.766L18.9684 20.772L19.44 20.3004L19.4775 20.2629L19.4769 20.262Z" fill="#00DDFF"/>
<path d="M16.2915 13.71C16.122 13.5403 15.9208 13.4058 15.6993 13.3139C15.4778 13.2221 15.2404 13.1748 15.0007 13.1748C14.7609 13.1748 14.5235 13.222 14.302 13.3138C14.0805 13.4055 13.8792 13.5401 13.7097 13.7097C13.54 13.8791 13.4054 14.0803 13.3136 14.3017C13.2217 14.5232 13.1745 14.7606 13.1745 15.0004C13.1745 15.2402 13.2217 15.4776 13.3136 15.6991C13.4054 15.9205 13.54 16.1217 13.7097 16.2912C13.8791 16.4608 14.0803 16.5954 14.3018 16.6872C14.5233 16.779 14.7607 16.8263 15.0005 16.8262C15.2403 16.8262 15.4777 16.7789 15.6992 16.687C15.9206 16.5952 16.1218 16.4605 16.2912 16.2909C16.6334 15.9486 16.8257 15.4845 16.8258 15.0005C16.8258 14.5165 16.6337 14.0523 16.2915 13.71Z" fill="#00DDFF"/>
<path d="M12.9327 18.9266L12.9384 18.9209L12.882 18.8645L12.8811 18.8633L12.8802 18.8624L12.4293 18.4112L12.4212 18.4193C12.4146 18.4124 12.4101 18.4043 12.4035 18.3977C10.5261 16.5203 10.5156 13.4753 12.3678 11.5823L12.3717 11.5862L12.8808 11.0774L12.8748 11.0714C12.983 10.9362 13.0384 10.7663 13.0306 10.5932C13.0228 10.4202 12.9524 10.2559 12.8325 10.1309L12.8337 10.1297L11.9283 9.22464L11.9223 9.23064C11.796 9.13122 11.6399 9.07739 11.4792 9.07788C11.3185 9.07837 11.1627 9.13315 11.037 9.23334L11.0313 9.22764L10.974 9.28494L10.5597 9.69924L10.5222 9.73674L10.5231 9.73764C7.6545 12.6473 7.6662 17.3471 10.56 20.2409C10.5666 20.2475 10.5747 20.252 10.5816 20.2586L10.5798 20.2604L11.0889 20.7698L11.0949 20.7638C11.2301 20.8721 11.4001 20.9274 11.5731 20.9196C11.7461 20.9119 11.9104 20.8415 12.0354 20.7215L12.0363 20.7224L12.045 20.7137L12.0465 20.7125L12.0477 20.711L12.8802 19.8785L12.8811 19.8779L12.8817 19.8773L12.9414 19.8176L12.9354 19.8116C13.0348 19.6854 13.0887 19.5293 13.0882 19.3687C13.0877 19.208 13.0329 19.0522 12.9327 18.9266Z" fill="#00DDFF"/>
<path d="M9.4449 22.4144L9.4506 22.4087L9.3936 22.3517L9.3933 22.3514L9.393 22.3511L8.9412 21.8996L8.9331 21.9077C8.9265 21.9008 8.922 21.8927 8.9154 21.8858C5.115 18.0851 5.1036 11.9099 8.8791 8.09389L8.8839 8.09869L9.3351 7.64749L9.336 7.64689L9.3366 7.64599L9.393 7.58959L9.3873 7.58389C9.4956 7.44864 9.55103 7.27862 9.54325 7.10552C9.53546 6.93243 9.465 6.76807 9.345 6.64309L9.3462 6.64189L8.916 6.21169L8.9157 6.21139L8.9154 6.21109L8.4411 5.73679L8.4351 5.74309C8.30883 5.64367 8.15268 5.58985 7.99198 5.59034C7.83128 5.59083 7.67545 5.64561 7.5498 5.74579L7.5438 5.73979L7.035 6.24889L7.0359 6.24979C2.2437 11.0828 2.2551 18.9125 7.0722 23.7293C7.0791 23.7362 7.0872 23.7404 7.0941 23.747L7.092 23.7491L7.6011 24.2585L7.6071 24.2525C7.74238 24.3608 7.91242 24.4161 8.08552 24.4083C8.25861 24.4004 8.42295 24.3299 8.5479 24.2099L8.5488 24.2108L8.5587 24.2009L9.3921 23.3672L9.3936 23.366L9.3948 23.3645L9.4536 23.3057L9.4476 23.2997C9.54701 23.1734 9.60084 23.0173 9.60035 22.8566C9.59986 22.6959 9.54508 22.54 9.4449 22.4144Z" fill="#00DDFF"/>
</svg>
