<svg width="30" height="30" viewBox="0 0 30 30" fill="none" xmlns="http://www.w3.org/2000/svg">
<path d="M18.4425 12.5C19.65 12.5 20.63 13.48 20.63 14.6875V18.75H20.625V20H9.375V16.25H9.3775V14.6875C9.3775 13.48 10.3562 12.5 11.565 12.5H18.4425ZM27.5 14.6875C27.5 14.1073 27.2695 13.5509 26.8593 13.1407C26.4491 12.7305 25.8927 12.5 25.3125 12.5H21.0938C21.585 13.0938 21.88 13.8562 21.88 14.6875V16.25H21.875V20H26.5625C26.8111 20 27.0496 19.9012 27.2254 19.7254C27.4012 19.5496 27.5 19.3111 27.5 19.0625V14.6875ZM8.125 18.75H8.1275V14.6875L8.13875 14.4125C8.19108 13.7097 8.46208 13.041 8.91375 12.5H4.6875L4.5075 12.5075C3.96037 12.5527 3.45024 12.8019 3.07835 13.2058C2.70646 13.6096 2.50002 14.1385 2.5 14.6875V19.0625C2.5 19.58 2.92 20 3.4375 20H8.125V18.75ZM15 3.75C15.9946 3.75 16.9484 4.14509 17.6517 4.84835C18.3549 5.55161 18.75 6.50544 18.75 7.5C18.75 8.49456 18.3549 9.44839 17.6517 10.1517C16.9484 10.8549 15.9946 11.25 15 11.25C14.0054 11.25 13.0516 10.8549 12.3483 10.1517C11.6451 9.44839 11.25 8.49456 11.25 7.5C11.25 6.50544 11.6451 5.55161 12.3483 4.84835C13.0516 4.14509 14.0054 3.75 15 3.75ZM23.125 5C23.9538 5 24.7487 5.32924 25.3347 5.91529C25.9208 6.50134 26.25 7.2962 26.25 8.125C26.25 8.9538 25.9208 9.74866 25.3347 10.3347C24.7487 10.9208 23.9538 11.25 23.125 11.25C22.2962 11.25 21.5013 10.9208 20.9153 10.3347C20.3292 9.74866 20 8.9538 20 8.125C20 7.2962 20.3292 6.50134 20.9153 5.91529C21.5013 5.32924 22.2962 5 23.125 5ZM6.875 5C7.7038 5 8.49866 5.32924 9.08471 5.91529C9.67076 6.50134 10 7.2962 10 8.125C10 8.9538 9.67076 9.74866 9.08471 10.3347C8.49866 10.9208 7.7038 11.25 6.875 11.25C6.0462 11.25 5.25134 10.9208 4.66529 10.3347C4.07924 9.74866 3.75 8.9538 3.75 8.125C3.75 7.2962 4.07924 6.50134 4.66529 5.91529C5.25134 5.32924 6.0462 5 6.875 5ZM2.5 22.1875C2.5 21.9389 2.59877 21.7004 2.77459 21.5246C2.9504 21.3488 3.18886 21.25 3.4375 21.25H26.5625C26.8111 21.25 27.0496 21.3488 27.2254 21.5246C27.4012 21.7004 27.5 21.9389 27.5 22.1875V22.8125C27.5 24.0557 27.0061 25.248 26.1271 26.1271C25.248 27.0061 24.0557 27.5 22.8125 27.5H7.1875C5.9443 27.5 4.75201 27.0061 3.87294 26.1271C2.99386 25.248 2.5 24.0557 2.5 22.8125V22.1875Z" fill="#00DDFF"/>
</svg>
