<svg width="30" height="30" viewBox="0 0 30 30" fill="none" xmlns="http://www.w3.org/2000/svg">
<path fill-rule="evenodd" clip-rule="evenodd" d="M10.68 1.32001C10.68 2.31457 10.2849 3.2684 9.58165 3.97166C8.87839 4.67492 7.92456 5.07001 6.93 5.07001V6.32001C7.92456 6.32001 8.87839 6.7151 9.58165 7.41836C10.2849 8.12162 10.68 9.07545 10.68 10.07H11.93C11.93 9.07545 12.3251 8.12162 13.0283 7.41836C13.7316 6.7151 14.6854 6.32001 15.68 6.32001V5.07001C14.6854 5.07001 13.7316 4.67492 13.0283 3.97166C12.3251 3.2684 11.93 2.31457 11.93 1.32001H10.68ZM5.555 10.14V12.57H7.9875V15.07H5.55625V17.5H3.05625V15.07H0.625V12.57H3.055V10.14H5.555ZM11.2787 11.945V19.4188C10.3256 18.8684 9.21747 18.648 8.12626 18.7916C7.03505 18.9353 6.02172 19.4349 5.24341 20.2132C4.46511 20.9914 3.96533 22.0046 3.82158 23.0958C3.67783 24.187 3.89814 25.2952 4.44834 26.2484C4.99855 27.2016 5.8479 27.9467 6.86469 28.368C7.88147 28.7893 9.00886 28.8634 10.072 28.5787C11.1352 28.2941 12.0747 27.6665 12.7449 26.7935C13.4151 25.9204 13.7785 24.8506 13.7787 23.75V13.4L26.2788 9.23376V15.6688C25.3256 15.1184 24.2175 14.898 23.1263 15.0416C22.035 15.1853 21.0217 15.6849 20.2434 16.4632C19.4651 17.2414 18.9653 18.2546 18.8216 19.3458C18.6778 20.437 18.8981 21.5452 19.4483 22.4984C19.9985 23.4516 20.8479 24.1967 21.8647 24.618C22.8815 25.0393 24.0089 25.1134 25.072 24.8287C26.1352 24.5441 27.0747 23.9165 27.7449 23.0435C28.4151 22.1704 28.7785 21.1006 28.7788 20V1.39126L17.555 5.13126V8.19501H15.68C15.1827 8.19501 14.7058 8.39255 14.3542 8.74418C14.0025 9.09581 13.805 9.57273 13.805 10.07V11.945H11.2787Z" fill="#00DDFF"/>
</svg>
