<svg width="75" height="23" viewBox="0 0 75 23" fill="none" xmlns="http://www.w3.org/2000/svg">
<path d="M9.824 22.72C6.752 22.72 4.34133 21.856 2.592 20.128C0.863998 18.4 -1.66893e-06 15.904 -1.66893e-06 12.64V0H4.16V12.48C4.16 14.784 4.65066 16.4587 5.632 17.504C6.63467 18.5493 8.04267 19.072 9.856 19.072C11.6693 19.072 13.0667 18.5493 14.048 17.504C15.0293 16.4587 15.52 14.784 15.52 12.48V0H19.616V12.64C19.616 15.904 18.7413 18.4 16.992 20.128C15.264 21.856 12.8747 22.72 9.824 22.72ZM28.834 22.4L22.562 5.312H26.338L31.714 20.384H29.922L35.554 5.312H38.914L44.386 20.384H42.626L48.162 5.312H51.714L45.41 22.4H41.57L36.578 9.056H37.762L32.674 22.4H28.834ZM64.4802 22.72C61.4082 22.72 58.9976 21.856 57.2482 20.128C55.5202 18.4 54.6562 15.904 54.6562 12.64V0H58.8162V12.48C58.8162 14.784 59.3069 16.4587 60.2882 17.504C61.2909 18.5493 62.6989 19.072 64.5122 19.072C66.3256 19.072 67.7229 18.5493 68.7042 17.504C69.6856 16.4587 70.1762 14.784 70.1762 12.48V0H74.2722V12.64C74.2722 15.904 73.3976 18.4 71.6482 20.128C69.9202 21.856 67.5309 22.72 64.4802 22.72Z" fill="white"/>
</svg>
